<svg fill="#228BE6" xmlns="http://www.w3.org/2000/svg"  viewBox="0 0 128 128" width="800px" height="800px"><path d="M99.7,59H42V37.5c0-11.9,9.2-22.1,21.2-22.5c11.6-0.4,21.4,8.2,22.7,19.4c0.2,1.5,1.5,2.6,3,2.6c1.8,0,3.2-1.6,3-3.3 C90.1,19.5,77.8,8.6,63.2,9C47.9,9.5,36,22.4,36,37.6V59h-7.7c-4.6,0-8.7,3.4-9.2,7.9c-0.5,4.7,2.6,8.8,6.9,9.8v6.5 c0,20.8,16.3,38.2,37.1,38.7c21.4,0.5,38.9-16.7,38.9-38v-7.2c4.3-1,7.5-5.1,6.9-9.8C108.4,62.4,104.3,59,99.7,59z M67,98 c0,1.7-1.3,3-3,3s-3-1.3-3-3v-6c0-1.7,1.3-3,3-3s3,1.3,3,3V98z M93,77H35c-1.7,0-3-1.3-3-3s1.3-3,3-3h58c1.7,0,3,1.3,3,3 S94.7,77,93,77z"/></svg>